<svg t="1581480433620" class="icon" viewBox="0 0 1024 1024" version="1.1" xmlns="http://www.w3.org/2000/svg" p-id="3756" width="200" height="200"><path d="M597.333333 277.333333c0-12.8-8.533333-21.333333-21.333333-21.333333-6.4 0-10.666667 2.133333-14.933333 6.4l-213.333333 234.666667C343.466667 501.333333 341.333333 505.6 341.333333 512c0 6.4 2.133333 10.666667 6.4 14.933333l213.333333 234.666667c4.266667 4.266667 8.533333 6.4 14.933333 6.4 12.8 0 21.333333-8.533333 21.333333-21.333333 0-6.4-2.133333-10.666667-6.4-14.933333L392.533333 512l200.533333-219.733333C595.2 288 597.333333 283.733333 597.333333 277.333333zM512 42.666667C251.733333 42.666667 42.666667 251.733333 42.666667 512s209.066667 469.333333 469.333333 469.333333 469.333333-209.066667 469.333333-469.333333S772.266667 42.666667 512 42.666667zM512 938.666667C277.333333 938.666667 85.333333 746.666667 85.333333 512 85.333333 277.333333 277.333333 85.333333 512 85.333333s426.666667 192 426.666667 426.666667C938.666667 746.666667 746.666667 938.666667 512 938.666667z" p-id="3757" fill="#e6e6e6"></path></svg>