<svg t="1581480466665" class="icon" viewBox="0 0 1024 1024" version="1.1" xmlns="http://www.w3.org/2000/svg" p-id="4541" width="200" height="200"><path d="M512 960C265.6 960 64 758.4 64 512S265.6 64 512 64s448 201.6 448 448-201.6 448-448 448z m0-852c-222.2 0-404 181.8-404 404s181.8 404 404 404 404-181.8 404-404-181.8-404-404-404z" p-id="4542" fill="#e6e6e6"></path><path d="M652.7 496.4L457.6 301.3c-8.6-8.6-22.5-8.6-31.1 0s-8.6 22.5 0 31.1L606 512 426.4 691.6c-8.6 8.6-8.6 22.5 0 31.1 8.6 8.6 22.5 8.6 31.1 0l195.2-195.2c8.6-8.5 8.6-22.5 0-31.1z" p-id="4543" fill="#e6e6e6"></path></svg>