<?xml version="1.0" encoding="utf-8"?>
<svg version="1.1" xmlns:xlink="http://www.w3.org/1999/xlink" width="57px" height="57px" xmlns="http://www.w3.org/2000/svg">
  <g transform="matrix(1 0 0 1 -216 -238 )">
    <path d="M 244.5 238  C 260.46 238  273 250.54  273 266.5  C 273 282.46  260.46 295  244.5 295  C 228.54 295  216 282.46  216 266.5  C 216 250.54  228.54 238  244.5 238  Z " fill-rule="nonzero" fill="#ffffff" stroke="none" />
    <path d="M 244.5 238.5  C 260.18 238.5  272.5 250.82  272.5 266.5  C 272.5 282.18  260.18 294.5  244.5 294.5  C 228.82 294.5  216.5 282.18  216.5 266.5  C 216.5 250.82  228.82 238.5  244.5 238.5  Z " stroke-width="1" stroke="#797979" fill="none" />
  </g>
</svg>