<?xml version="1.0" encoding="utf-8"?>
<svg version="1.1" xmlns:xlink="http://www.w3.org/1999/xlink" width="40px" height="40px" xmlns="http://www.w3.org/2000/svg">
  <g transform="matrix(1 0 0 1 -1229 -480 )">
    <path d="M 1249 480.5  C 1259.92 480.5  1268.5 489.08  1268.5 500  C 1268.5 510.92  1259.92 519.5  1249 519.5  C 1238.08 519.5  1229.5 510.92  1229.5 500  C 1229.5 489.08  1238.08 480.5  1249 480.5  Z " fill-rule="nonzero" fill="#f3f3f3" stroke="none" />
    <path d="M 1249 480.5  C 1259.92 480.5  1268.5 489.08  1268.5 500  C 1268.5 510.92  1259.92 519.5  1249 519.5  C 1238.08 519.5  1229.5 510.92  1229.5 500  C 1229.5 489.08  1238.08 480.5  1249 480.5  Z " stroke-width="1" stroke="#000000" fill="none" stroke-opacity="0.0470588235294118" />
  </g>
</svg>