<?xml version="1.0" encoding="utf-8"?>
<svg version="1.1" xmlns:xlink="http://www.w3.org/1999/xlink" width="76px" height="76px" xmlns="http://www.w3.org/2000/svg">
  <g transform="matrix(1 0 0 1 -212 -250 )">
    <path d="M 250 250  C 271.28 250  288 266.72  288 288  C 288 309.28  271.28 326  250 326  C 228.72 326  212 309.28  212 288  C 212 266.72  228.72 250  250 250  Z " fill-rule="nonzero" fill="#ffffff" stroke="none" />
    <path d="M 250 250.5  C 271 250.5  287.5 267  287.5 288  C 287.5 309  271 325.5  250 325.5  C 229 325.5  212.5 309  212.5 288  C 212.5 267  229 250.5  250 250.5  Z " stroke-width="1" stroke="#797979" fill="none" />
  </g>
</svg>