<?xml version="1.0" encoding="utf-8"?>
<svg version="1.1" xmlns:xlink="http://www.w3.org/1999/xlink" width="67px" height="67px" xmlns="http://www.w3.org/2000/svg">
  <g transform="matrix(1 0 0 1 -81 -1019 )">
    <path d="M 114.5 1021  C 132.14 1021  146 1034.86  146 1052.5  C 146 1070.14  132.14 1084  114.5 1084  C 96.86 1084  83 1070.14  83 1052.5  C 83 1034.86  96.86 1021  114.5 1021  Z " fill-rule="nonzero" fill="#ffffff" stroke="none" fill-opacity="0" />
    <path d="M 114.5 1020.5  C 132.42 1020.5  146.5 1034.58  146.5 1052.5  C 146.5 1070.42  132.42 1084.5  114.5 1084.5  C 96.58 1084.5  82.5 1070.42  82.5 1052.5  C 82.5 1034.58  96.58 1020.5  114.5 1020.5  Z " stroke-width="3" stroke="#aaaaaa" fill="none" />
  </g>
</svg>