<svg t="1584353980715" class="icon" viewBox="0 0 1024 1024" version="1.1" xmlns="http://www.w3.org/2000/svg" p-id="2028" width="200" height="200"><path d="M93.7 348.9c-15.4 0-28 12.5-28 27.9v267.7c0 15.4 12.5 28 28 28s28-12.5 28-28V376.8c-0.1-15.4-12.6-27.9-28-27.9zM657.5 111.1c-8.2-5.1-18.5-5.5-27.2-1.2l-439 219.9c-9.5 4.7-15.4 14.4-15.4 25v311.7c0 10.6 6 20.3 15.4 25l439 219.9c4 2 8.2 3 12.5 3 5.1 0 10.2-1.4 14.7-4.2 8.2-5.1 13.3-14.1 13.3-23.8V134.9c-0.1-9.7-5.1-18.7-13.3-23.8z m-42.7 730.1l-47.2-23.6V444.2c0-10.3-8.3-18.6-18.6-18.6s-18.6 8.3-18.6 18.6v354.6L231.7 649.3V372.1l298.6-149.6v117.4c0 10.3 8.3 18.6 18.6 18.6s18.6-8.3 18.6-18.6V203.8l47.2-23.6v661zM748.8 223.9c-9.8-3.2-20.3 2.1-23.5 11.9-3.2 9.8 2.1 20.3 11.9 23.5C845.9 295.1 919 396.1 919 510.7s-73.1 215.6-181.9 251.4c-9.8 3.2-15.1 13.8-11.9 23.5 2.6 7.8 9.9 12.8 17.7 12.8 1.9 0 3.9-0.3 5.8-1 124.1-40.8 207.5-156.1 207.5-286.8 0.1-130.6-83.3-245.9-207.4-286.7z" fill="#707070" p-id="2029"></path><path d="M734.3 684.3c-9.1 4.8-12.6 16.1-7.8 25.2 3.3 6.3 9.8 9.9 16.5 9.9 2.9 0 5.9-0.7 8.7-2.2 76.9-40.6 124.7-119.8 124.7-206.6s-47.8-166-124.7-206.6c-9.1-4.8-20.4-1.3-25.2 7.8-4.8 9.1-1.3 20.4 7.8 25.2 64.7 34.2 104.8 100.7 104.8 173.6 0 73-40.2 139.5-104.8 173.7z" fill="#707070" p-id="2030"></path></svg>