<?xml version="1.0" encoding="utf-8"?>
<svg version="1.1" xmlns:xlink="http://www.w3.org/1999/xlink" width="710px" height="843px" xmlns="http://www.w3.org/2000/svg">
  <g transform="matrix(1 0 0 1 -2204 -164 )">
    <path d="M 0.5 0  L 0.5 838  C 0 840.24  0.55312056737608 842  1.25709219858142 842.5  L 707.742907801418 842.5  C 708.446879432624 842  709 840.24  709.5 838  L 709.5 0  L 0.5 0  Z " fill-rule="nonzero" fill="#ffffff" stroke="none" transform="matrix(1 0 0 1 2204 164 )" />
    <path d="M 0.5 0  L 0.5 838  C 0 840.24  0.55312056737608 842  1.25709219858142 842.5  L 707.742907801418 842.5  C 708.446879432624 842  709 840.24  709.5 838  L 709.5 0  " stroke-width="1" stroke="#e9e9e9" fill="none" transform="matrix(1 0 0 1 2204 164 )" />
  </g>
</svg>