<?xml version="1.0" encoding="utf-8"?>
<svg version="1.1" xmlns:xlink="http://www.w3.org/1999/xlink" width="52px" height="18px" xmlns="http://www.w3.org/2000/svg">
  <defs>
    <mask fill="white" id="clip56">
      <path d="M 0 15  L 0 3  C 0 1.32000000000003  0.886821705426352 0  2.01550387596899 0  L 22.5736434108527 0  L 49.984496124031 0  C 51.1131782945737 0  52 1.32000000000003  52 3  L 52 15  C 52 16.68  51.1131782945737 18  49.984496124031 18  L 2.01550387596899 18  C 0.886821705426352 18  0 16.68  0 15  Z " fill-rule="evenodd" />
    </mask>
  </defs>
  <g transform="matrix(1 0 0 1 -369 -832 )">
    <path d="M 0 15  L 0 3  C 0 1.32000000000003  0.886821705426352 0  2.01550387596899 0  L 22.5736434108527 0  L 49.984496124031 0  C 51.1131782945737 0  52 1.32000000000003  52 3  L 52 15  C 52 16.68  51.1131782945737 18  49.984496124031 18  L 2.01550387596899 18  C 0.886821705426352 18  0 16.68  0 15  Z " fill-rule="nonzero" fill="#ffffff" stroke="none" transform="matrix(1 0 0 1 369 832 )" />
    <path d="M 0 15  L 0 3  C 0 1.32000000000003  0.886821705426352 0  2.01550387596899 0  L 22.5736434108527 0  L 49.984496124031 0  C 51.1131782945737 0  52 1.32000000000003  52 3  L 52 15  C 52 16.68  51.1131782945737 18  49.984496124031 18  L 2.01550387596899 18  C 0.886821705426352 18  0 16.68  0 15  Z " stroke-width="2" stroke="#797979" fill="none" transform="matrix(1 0 0 1 369 832 )" mask="url(#clip56)" />
  </g>
</svg>