<svg t="1584333738429" class="icon" viewBox="0 0 1024 1024" version="1.1" xmlns="http://www.w3.org/2000/svg" p-id="3608" width="200" height="200"><path d="M512 942.986c237.677 0 430.986-193.31 430.986-430.986s-193.31-430.986-430.986-430.986c-237.677 0-430.986 193.31-430.986 430.986 0 237.677 193.31 430.986 430.986 430.986v0zM603.901 439.112l-186.971-183.803c0 0 38.029-15.845 91.901-15.845s91.901 15.845 91.901 15.845v183.803h3.17zM629.253 527.845v-259.859c0 0 38.029 15.845 76.057 53.873 38.029 38.029 53.873 76.057 53.873 76.057l-129.93 129.93zM584.888 603.901l183.803-186.971c0 0 15.845 38.029 15.845 91.901 0 57.042-15.845 91.901-15.845 91.901h-183.803v3.17zM496.155 626.084h259.859c0 0-15.845 38.029-53.873 76.057-38.029 41.197-72.888 57.042-72.888 57.042l-133.099-133.099zM420.099 581.718l186.971 183.803c0 0-38.029 15.845-91.901 15.845s-91.901-15.845-91.901-15.845v-183.803h-3.17zM397.916 496.155v259.859c0 0-38.029-15.845-76.057-53.873-38.029-38.029-53.873-76.057-53.873-76.057l129.93-129.93zM442.282 420.099l-183.803 186.971c0 0-15.845-38.029-15.845-91.901 0-57.042 15.845-91.901 15.845-91.901h183.803v-3.17zM527.845 394.747h-259.859c0 0 15.845-38.029 53.873-76.057 38.029-38.029 76.057-53.873 76.057-53.873l129.93 129.93zM527.845 394.747z" p-id="3609" fill="#707070"></path></svg>