<svg t="1584691155710" class="icon" viewBox="0 0 1024 1024" version="1.1" xmlns="http://www.w3.org/2000/svg" p-id="3032" width="200" height="200"><path d="M678.7 496.2c18.3-5.1 41.6-12.1 71.1-21.6 238.8-76.6 209-373.3 209-373.3H773.4V64H250.6v37.3H65.2s-30.1 297.8 209 373.3c29.3 9.3 52.5 16.2 70.9 21.2 36.2 44 80.8 75.3 129.6 86.1v267.2c-126.6 7.8-224 54.4-224 110.8h522.8c0-56.4-97.4-103-224-110.8v-267c48.5-10.8 93-41.9 129.2-85.9z m94.6-271.4v-86.1H923c-0.5 74.1-19.9 247.7-184.4 300.5-9.4 3-17.7 5.6-25.7 8.1 37.6-64.7 60.4-144.2 60.4-222.5zM285.4 439.1C120.7 387 101.6 212.8 101.1 138.7h149.5v86.1c0 78.3 22.7 157.8 60.5 222.3-7.9-2.5-16.3-5.1-25.7-8zM512 394.4l-115.4 80.3 40.7-134.5-112-85 140.5-2.8L512 119.6l46.2 132.7 140.5 2.8-112 85 40.7 134.5L512 394.4z" p-id="3033" fill="#707070"></path></svg>